<svg version="1.1" id="Layer_1" xmlns="http://www.w3.org/2000/svg" xmlns:xlink="http://www.w3.org/1999/xlink" x="0px" y="0px"
	 width="100%" viewBox="0 0 1180 948" xml:space="preserve">
<path fill="#3A393C" opacity="1.000000" stroke="none" 
	d="
M874.580994,613.721436 
	C894.744934,613.702454 914.908936,613.705811 935.072815,613.657654 
	C952.233582,613.616638 956.396362,617.790222 955.981934,634.894348 
	C956.318542,635.111694 956.716980,635.594971 957.106323,635.587830 
	C976.386108,635.230835 995.854187,636.383545 1014.898804,634.063843 
	C1041.692261,630.800293 1064.255127,616.833130 1085.305786,600.540894 
	C1099.775391,589.341980 1112.397339,576.395874 1122.707153,561.236389 
	C1124.109375,559.174683 1125.608643,557.153748 1127.265625,555.294495 
	C1136.973633,544.401123 1151.239380,541.954712 1163.473267,549.009644 
	C1175.904297,556.178223 1181.536499,570.128052 1176.997070,583.719116 
	C1166.691040,614.575195 1147.699097,639.210083 1121.853027,658.569092 
	C1087.229736,684.502625 1047.888184,698.418762 1005.035339,702.121338 
	C988.985718,703.508057 972.758057,702.835999 956.611450,703.095459 
	C954.973694,703.121765 953.335205,703.098938 951.773315,703.098938 
	C936.281738,793.381531 894.553955,866.118408 813.060730,914.323303 
	C816.242188,914.323303 818.144592,914.322937 820.046997,914.323303 
	C848.544617,914.329102 877.042297,914.309326 905.539856,914.354126 
	C915.927185,914.370422 922.331726,918.907043 924.265198,927.399475 
	C926.313965,936.398254 920.120117,945.144104 910.976929,946.087280 
	C909.325500,946.257690 907.647400,946.196960 905.981567,946.197144 
	C703.998047,946.217041 502.014526,946.233704 300.031006,946.244507 
	C290.380463,946.245056 284.226013,941.647400 282.543976,933.255310 
	C281.129974,926.200500 285.519165,918.288208 292.769043,915.786743 
	C295.837280,914.728149 299.290558,914.419556 302.571991,914.403076 
	C326.402802,914.283630 350.234375,914.325745 374.065735,914.316956 
	C375.517609,914.316406 376.969452,914.316833 379.796417,914.316833 
	C294.562775,868.038208 248.259476,795.932434 231.370117,703.204712 
	C219.870300,703.204712 208.255386,703.139038 196.641449,703.217285 
	C164.182312,703.435913 133.111481,696.858032 103.450890,683.831421 
	C62.461582,665.829224 29.770233,638.742432 10.336876,597.454956 
	C8.496378,593.544739 6.829680,589.536255 5.349367,585.475952 
	C0.263636,571.526489 4.880319,557.886108 17.313362,549.746460 
	C28.992271,542.100525 44.361958,543.387329 54.453625,553.683655 
	C59.894600,559.234924 64.032692,566.038025 69.081779,572.002808 
	C92.358620,599.501099 120.081909,620.684204 154.951920,631.398560 
	C174.248505,637.327698 194.177551,636.025146 213.976456,635.971619 
	C218.092697,635.960449 222.208984,635.969971 226.707733,635.969971 
	C226.480255,633.476440 226.307236,632.041260 226.224869,630.600891 
	C225.730133,621.950989 231.870438,614.528748 240.631927,614.000183 
	C248.602844,613.519348 256.618408,613.735840 264.614410,613.722107 
	C280.779358,613.694214 296.944427,613.718628 314.021179,613.783691 
	C316.929688,613.907898 318.926453,614.024048 320.923248,614.024109 
	C503.485352,614.028687 686.047424,614.025452 868.609558,614.008545 
	C870.600037,614.008362 872.590515,613.821289 874.580994,613.721436 
M855.760498,793.253601 
	C859.666992,784.627319 864.059509,776.182495 867.363098,767.331177 
	C872.006592,754.889832 866.063965,744.581726 852.442688,740.026428 
	C839.395935,735.663269 829.722351,740.577332 824.986511,752.940308 
	C820.837158,763.772156 816.562805,774.730286 810.743958,784.698914 
	C805.088013,794.388428 797.499878,802.969543 790.566528,811.886902 
	C786.084045,817.652100 784.635254,823.936096 787.461914,830.587524 
	C790.298584,837.262512 795.950439,840.544617 803.138672,841.287720 
	C810.101379,842.007446 815.786621,839.274231 820.987915,835.017822 
	C835.071411,823.492859 846.479675,809.740295 855.760498,793.253601 
M840.554993,679.949402 
	C822.968323,693.699341 823.984924,718.219238 842.551453,728.104004 
	C854.460510,734.444397 868.435486,731.525818 877.144775,720.879578 
	C885.474182,710.697571 885.448425,695.230469 877.085510,685.403137 
	C867.686035,674.357483 854.105957,672.142273 840.554993,679.949402 
z"/>
<path fill="#FEB511" opacity="1.000000" stroke="none" 
	d="
M905.617493,371.632690 
	C884.958313,389.747803 861.740540,401.805267 834.649780,405.477753 
	C805.865295,409.379761 778.140747,406.327454 754.004517,388.826630 
	C727.248291,369.426086 716.168457,342.189514 718.704651,309.601257 
	C720.916565,281.181091 734.998291,258.073029 754.028442,237.940674 
	C766.711487,224.522949 780.631775,212.278320 793.927979,199.435776 
	C810.994446,182.951660 825.142273,164.409470 834.201050,142.253647 
	C843.883362,118.573006 845.023193,94.436935 838.456970,69.824242 
	C837.641541,66.767746 836.923157,63.682873 836.021667,60.652248 
	C833.132385,50.938927 842.036194,39.797489 854.143677,44.527908 
	C868.757568,50.237637 881.763489,58.463112 893.804565,68.334724 
	C928.793823,97.019768 948.194275,134.620865 955.982666,178.572617 
	C963.861328,223.033371 960.838440,266.807587 946.010376,309.574554 
	C937.733826,333.445801 924.495056,354.189911 905.617493,371.632690 
z"/>
<path fill="#FD7935" opacity="1.000000" stroke="none" 
	d="
M369.240662,338.645569 
	C371.191010,360.294922 375.377533,380.978638 384.268402,400.399841 
	C389.182800,411.134766 394.747864,421.597809 400.486267,431.924103 
	C412.657867,453.826965 409.057373,475.418091 389.993958,492.008759 
	C369.609558,509.749023 345.329041,515.159424 319.473022,511.379028 
	C270.573730,504.229523 238.041367,475.100769 219.331314,430.656097 
	C201.384933,388.025574 205.346893,344.969391 224.820145,304.148102 
	C258.418640,233.716339 312.470184,184.768646 386.182007,158.313828 
	C406.053802,151.181931 426.815613,148.061295 447.994415,148.205933 
	C449.159424,148.213882 450.335602,148.195602 451.486633,148.344116 
	C455.339081,148.841217 458.779053,150.165817 459.721558,154.406433 
	C460.625275,158.472290 457.997101,160.831299 454.990417,162.965759 
	C433.297424,178.365784 414.861420,196.994537 400.079926,219.126022 
	C375.984039,255.203400 365.710205,294.916473 369.240662,338.645569 
z"/>
<path fill="#FD7935" opacity="1.000000" stroke="none" 
	d="
M597.181030,278.176636 
	C577.073547,295.542084 559.651917,314.579620 548.515503,338.731598 
	C537.721619,362.140808 534.718994,386.450775 538.997559,411.830536 
	C541.000854,423.713959 535.042236,430.805847 522.852295,430.678406 
	C505.813385,430.500244 489.992584,425.376923 475.640167,416.353241 
	C448.075775,399.022949 432.983887,373.436768 430.088013,341.465851 
	C425.352478,289.184021 446.405640,247.088318 484.378357,212.588196 
	C507.940216,191.181046 536.066467,176.946716 564.238708,162.780807 
	C579.088318,155.313965 593.991699,147.720032 607.919983,138.713043 
	C626.309998,126.820709 638.201111,110.130806 640.567749,87.454117 
	C641.706970,76.538681 649.375549,73.258095 658.299011,79.583229 
	C677.092224,92.904114 687.853455,111.393044 691.094238,134.034454 
	C695.348022,163.752441 684.192444,188.861008 666.702942,211.877075 
	C649.929932,233.950226 629.080444,251.843201 607.805359,269.300293 
	C604.328918,272.152832 600.891907,275.053223 597.181030,278.176636 
z"/>
<path fill="#FEB511" opacity="1.000000" stroke="none" 
	d="
M420.019470,576.877502 
	C418.955475,572.911987 417.841583,568.959045 416.835144,564.978943 
	C406.806915,525.321411 436.314362,486.245239 477.180695,484.900665 
	C499.696930,484.159882 519.669128,491.874054 538.518860,503.173950 
	C549.513062,509.764618 560.115723,517.005798 571.064880,523.674622 
	C598.920288,540.640564 626.747803,540.902649 654.254333,522.850220 
	C665.250061,515.633789 675.865234,507.832184 686.932190,500.730988 
	C701.579712,491.332245 717.367004,484.904144 735.108337,484.672180 
	C771.573059,484.195404 797.101379,507.180511 800.594299,543.508972 
	C801.689697,554.902588 798.953979,565.614014 794.511169,576.515991 
	C792.094421,576.948975 790.097107,576.999084 788.099792,576.999146 
	C697.535828,577.001404 606.971802,577.009399 516.407837,576.992188 
	C484.278381,576.986084 452.148926,576.917542 420.019470,576.877502 
z"/>
<path fill="#FC7834" opacity="1.000000" stroke="none" 
	d="
M419.547668,576.813049 
	C452.148926,576.917542 484.278381,576.986084 516.407837,576.992188 
	C606.971802,577.009399 697.535828,577.001404 788.099792,576.999146 
	C790.097107,576.999084 792.094421,576.948975 794.555420,576.892639 
	C815.766479,576.845337 836.514893,576.694702 857.260620,576.866882 
	C867.425171,576.951172 875.223389,583.740295 876.022888,593.829956 
	C876.521973,600.129089 875.249939,606.568604 874.676880,613.333252 
	C872.590515,613.821289 870.600037,614.008362 868.609558,614.008545 
	C686.047424,614.025452 503.485352,614.028687 320.923248,614.024109 
	C318.926453,614.024048 316.929688,613.907898 314.489777,613.732300 
	C310.284698,606.006287 310.830383,598.088928 312.887543,590.270569 
	C314.838867,582.854614 321.820129,577.405518 329.809845,576.968506 
	C336.939087,576.578674 344.099731,576.709595 351.246582,576.706421 
	C373.856354,576.696350 396.466125,576.731201 419.547668,576.813049 
z"/>
<path fill="#FDB612" opacity="1.000000" stroke="none" 
	d="
M773.549988,147.532166 
	C765.354980,156.899826 755.757019,163.560318 744.196777,167.271347 
	C740.308899,168.519424 736.008545,168.837677 733.810730,165.088745 
	C732.255188,162.435333 731.806885,158.471329 732.363892,155.360901 
	C734.267273,144.731964 737.550842,134.319550 739.006531,123.647041 
	C742.720520,96.418167 738.196228,70.270790 724.524475,46.454227 
	C715.142273,30.110308 718.955750,21.254858 726.384399,13.339098 
	C735.661865,3.453417 750.931519,1.211665 763.757996,7.492523 
	C771.312927,11.192048 777.520630,16.534460 781.226074,24.063475 
	C798.418701,58.996681 800.855835,94.565269 784.536804,130.501709 
	C781.820251,136.483734 777.411255,141.697235 773.549988,147.532166 
z"/>
<path fill="#FC7A36" opacity="1.000000" stroke="none" 
	d="
M579.077148,491.847137 
	C566.171265,469.789612 577.082947,445.211212 595.158875,434.540283 
	C615.150024,422.738770 641.340759,428.414154 653.921204,447.494049 
	C666.876343,467.142273 662.583130,491.607605 643.725586,505.594849 
	C623.439819,520.641418 593.942871,514.500366 579.077148,491.847137 
z"/>
<path fill="#FC7A36" opacity="1.000000" stroke="none" 
	d="
M218.583801,202.604965 
	C208.509857,195.999252 204.391998,186.007050 207.539154,176.409180 
	C210.805695,166.447266 221.368439,159.458084 231.947372,160.258713 
	C242.586151,161.063858 251.218079,168.899628 253.204422,179.555115 
	C256.119476,195.192245 239.861053,208.904602 223.585907,204.503128 
	C221.989944,204.071487 220.467117,203.369431 218.583801,202.604965 
z"/>
<path fill="#FB7A37" opacity="1.000000" stroke="none" 
	d="
M854.733521,469.310303 
	C861.768921,478.392395 862.363770,487.711670 856.658203,495.799377 
	C850.803406,504.098572 840.261658,507.362549 830.489685,503.901825 
	C821.672913,500.779388 815.526855,491.954529 816.094543,482.674072 
	C816.654541,473.520416 821.344116,466.798248 829.818054,463.517670 
	C839.006714,459.960327 847.481750,461.765686 854.733521,469.310303 
z"/>
<path fill="#FC9024" opacity="1.000000" stroke="none" 
	d="
M204.297775,241.795807 
	C210.238770,250.491608 209.318695,259.843933 202.209427,265.725098 
	C194.969391,271.714478 184.779266,271.284729 178.272278,264.715698 
	C171.857178,258.239441 171.325974,249.061768 176.967880,242.179199 
	C182.953018,234.877914 192.991943,233.343674 200.655014,238.613983 
	C201.876572,239.454086 202.929169,240.539871 204.297775,241.795807 
z"/>
<path fill="#FBFCFC" opacity="1.000000" stroke="none" 
	d="
M855.560547,793.563110 
	C846.479675,809.740295 835.071411,823.492859 820.987915,835.017822 
	C815.786621,839.274231 810.101379,842.007446 803.138672,841.287720 
	C795.950439,840.544617 790.298584,837.262512 787.461914,830.587524 
	C784.635254,823.936096 786.084045,817.652100 790.566528,811.886902 
	C797.499878,802.969543 805.088013,794.388428 810.743958,784.698914 
	C816.562805,774.730286 820.837158,763.772156 824.986511,752.940308 
	C829.722351,740.577332 839.395935,735.663269 852.442688,740.026428 
	C866.063965,744.581726 872.006592,754.889832 867.363098,767.331177 
	C864.059509,776.182495 859.666992,784.627319 855.560547,793.563110 
z"/>
<path fill="#FBFBFC" opacity="1.000000" stroke="none" 
	d="
M840.857422,679.746033 
	C854.105957,672.142273 867.686035,674.357483 877.085510,685.403137 
	C885.448425,695.230469 885.474182,710.697571 877.144775,720.879578 
	C868.435486,731.525818 854.460510,734.444397 842.551453,728.104004 
	C823.984924,718.219238 822.968323,693.699341 840.857422,679.746033 
z"/>
</svg>